<?xml version="1.0" encoding="UTF-8" standalone="no"?>
<!-- Created with Inkscape (http://www.inkscape.org/) -->

<svg
   xmlns:dc="http://purl.org/dc/elements/1.1/"
   xmlns:cc="http://creativecommons.org/ns#"
   xmlns:rdf="http://www.w3.org/1999/02/22-rdf-syntax-ns#"
   xmlns:svg="http://www.w3.org/2000/svg"
   xmlns="http://www.w3.org/2000/svg"
   xmlns:xlink="http://www.w3.org/1999/xlink"
   xmlns:sodipodi="http://sodipodi.sourceforge.net/DTD/sodipodi-0.dtd"
   xmlns:inkscape="http://www.inkscape.org/namespaces/inkscape"
   width="55.016281mm"
   height="9.2629614mm"
   viewBox="0 0 194.93958 32.821517"
   id="svg2"
   version="1.1"
   inkscape:version="0.91 r13725"
   sodipodi:docname="logo.svg">
  <defs
     id="defs4">
    <linearGradient
       id="linearGradient4614"
       inkscape:collect="always">
      <stop
         id="stop4616"
         offset="0"
         style="stop-color:#586e75;stop-opacity:1" />
      <stop
         id="stop4618"
         offset="1"
         style="stop-color:#d33682;stop-opacity:1" />
    </linearGradient>
    <linearGradient
       inkscape:collect="always"
       id="linearGradient4590">
      <stop
         style="stop-color:#000000;stop-opacity:1;"
         offset="0"
         id="stop4592" />
      <stop
         style="stop-color:#000000;stop-opacity:0;"
         offset="1"
         id="stop4594" />
    </linearGradient>
    <radialGradient
       inkscape:collect="always"
       xlink:href="#linearGradient4590"
       id="radialGradient4596"
       cx="266.00146"
       cy="73.572914"
       fx="266.00146"
       fy="73.572914"
       r="82.482574"
       gradientTransform="matrix(-0.22222094,1.21117,-0.07067653,-0.01296746,352.09999,-244.2123)"
       gradientUnits="userSpaceOnUse" />
    <linearGradient
       inkscape:collect="always"
       xlink:href="#linearGradient4614"
       id="linearGradient4612"
       x1="183.01888"
       y1="73.572914"
       x2="513.83112"
       y2="80.139641"
       gradientUnits="userSpaceOnUse"
       gradientTransform="matrix(1.2625557,0,0,1.2625557,-48.052648,-15.883251)" />
  </defs>
  <sodipodi:namedview
     id="base"
     pagecolor="#ffffff"
     bordercolor="#666666"
     borderopacity="1.0"
     inkscape:pageopacity="0.0"
     inkscape:pageshadow="2"
     inkscape:zoom="1.1933422"
     inkscape:cx="291.6831"
     inkscape:cy="68.779062"
     inkscape:document-units="px"
     inkscape:current-layer="layer1"
     showgrid="false"
     fit-margin-top="0"
     fit-margin-left="0"
     fit-margin-right="0"
     fit-margin-bottom="0"
     inkscape:window-width="1280"
     inkscape:window-height="657"
     inkscape:window-x="-8"
     inkscape:window-y="-8"
     inkscape:window-maximized="1" />
  <metadata
     id="metadata7">
    <rdf:RDF>
      <cc:Work
         rdf:about="">
        <dc:format>image/svg+xml</dc:format>
        <dc:type
           rdf:resource="http://purl.org/dc/dcmitype/StillImage" />
        <dc:title></dc:title>
      </cc:Work>
    </rdf:RDF>
  </metadata>
  <g
     inkscape:label="Layer 1"
     inkscape:groupmode="layer"
     id="layer1"
     transform="translate(-182.09662,-60.090378)">
    <g
       style="font-style:normal;font-weight:normal;font-size:50.50222778px;line-height:125%;font-family:sans-serif;letter-spacing:0px;word-spacing:0px;fill:url(#linearGradient4612);fill-opacity:1;stroke:none;stroke-width:1.26255572px;stroke-linecap:butt;stroke-linejoin:miter;stroke-opacity:1"
       id="text4144">
      <path
         d="m 203.59951,63.468701 q 0.46853,-0.641141 1.01103,-0.961712 0.56717,-0.320571 1.20831,-0.320571 1.10967,0 1.80013,0.764438 0.71512,0.764438 0.71512,2.589226 l 0,4.290716 q 0,1.824788 -0.71512,2.613885 -0.69046,0.764438 -1.80013,0.764438 -1.01103,0 -1.62751,-0.567164 -0.61649,-0.567163 -0.9124,-2.120699 -0.17261,-1.03569 -0.69046,-1.602853 -1.01103,-1.109669 -2.83582,-1.775469 -1.80012,-0.665801 -3.62491,-0.665801 -2.26866,0 -4.16742,0.986371 -1.89877,0.986372 -3.35367,3.205708 -1.45489,2.219336 -1.45489,5.277088 l 0,3.279686 q 0,3.649575 2.63854,6.090845 2.6632,2.44127 7.37313,2.44127 2.81116,0 4.75924,-0.764438 1.13433,-0.443867 2.41661,-1.75081 0.7891,-0.789097 1.23297,-1.011031 0.44386,-0.246593 1.01103,-0.246593 1.01103,0 1.77547,0.764438 0.76443,0.764438 0.76443,1.800129 0,1.03569 -1.03569,2.219336 -1.50421,1.72615 -3.8715,2.712522 -3.18105,1.331601 -7.0279,1.331601 -4.48799,0 -8.08825,-1.849446 -2.9098,-1.479558 -4.95652,-4.660606 -2.04672,-3.205708 -2.04672,-6.97858 l 0,-3.427641 q 0,-3.945487 1.82479,-7.348469 1.84945,-3.427641 5.10447,-5.277088 3.25503,-1.849447 6.9046,-1.849447 2.19468,0 4.09345,0.517845 1.92342,0.493186 3.57559,1.528876 z"
         style="font-style:normal;font-variant:normal;font-weight:bold;font-stretch:normal;font-family:'Courier New';-inkscape-font-specification:'Courier New Bold';letter-spacing:-7.46000004px;fill:url(#linearGradient4612);fill-opacity:1;stroke:none;stroke-width:1.26255572px;stroke-opacity:1"
         id="path5132" />
      <path
         d="m 231.62423,81.297369 q 0,2.909796 -1.62751,5.646977 -1.60285,2.712522 -4.80856,4.340035 -3.18105,1.602854 -6.65801,1.602854 -3.4523,0 -6.60869,-1.578194 -3.15639,-1.602854 -4.80856,-4.340036 -1.65217,-2.737181 -1.65217,-5.720955 0,-3.033093 1.67683,-5.942889 1.67683,-2.934456 4.80856,-4.611288 3.15639,-1.676831 6.58403,-1.676831 3.4523,0 6.63335,1.72615 3.20571,1.701491 4.83322,4.611287 1.62751,2.885137 1.62751,5.94289 z m -5.05515,0.02466 q 0,-2.44127 -1.75081,-4.487991 -2.39195,-2.761841 -6.28812,-2.761841 -3.42764,0 -5.72096,2.194677 -2.29331,2.194677 -2.29331,5.079814 0,2.367292 2.31797,4.438673 2.31798,2.046721 5.6963,2.046721 3.40298,0 5.72096,-2.046721 2.31797,-2.071381 2.31797,-4.463332 z"
         style="font-style:normal;font-variant:normal;font-weight:bold;font-stretch:normal;font-family:'Courier New';-inkscape-font-specification:'Courier New Bold';letter-spacing:-7.46000004px;fill:url(#linearGradient4612);fill-opacity:1;stroke:none;stroke-width:1.26255572px;stroke-opacity:1"
         id="path5134" />
      <path
         d="m 252.91697,60.090378 0,26.927946 0.86307,0 q 1.80013,0 2.58923,0.715119 0.7891,0.690461 0.7891,1.824788 0,1.109668 -0.7891,1.824788 -0.76444,0.69046 -2.58923,0.69046 l -5.91823,0 0,-1.232965 q -1.72615,1.011031 -3.62491,1.528876 -1.87411,0.517845 -3.89617,0.517845 -5.6963,0 -9.17326,-3.279685 -3.47696,-3.304345 -3.47696,-8.211544 0,-5.129133 3.64958,-8.754049 3.64957,-3.624915 8.902,-3.624915 1.97274,0 3.87151,0.616482 1.89877,0.591823 3.74821,1.800128 l 0,-6.288119 -0.86307,0 q -1.82479,0 -2.61389,-0.69046 -0.76444,-0.71512 -0.76444,-1.824788 0,-1.134327 0.76444,-1.824787 0.7891,-0.71512 2.61389,-0.71512 l 5.91823,0 z m -5.05516,21.453583 q 0,-3.131729 -2.19467,-5.301747 -2.19468,-2.170018 -5.37573,-2.170018 -3.15639,0 -5.35107,2.170018 -2.19467,2.170018 -2.19467,5.22777 0,2.786499 1.97274,4.586628 1.97274,1.775469 5.573,1.775469 3.5756,0 5.573,-1.775469 1.9974,-1.800129 1.9974,-4.512651 z"
         style="font-style:normal;font-variant:normal;font-weight:bold;font-stretch:normal;font-family:'Courier New';-inkscape-font-specification:'Courier New Bold';letter-spacing:-7.46000004px;fill:url(#linearGradient4612);fill-opacity:1;stroke:none;stroke-width:1.26255572px;stroke-opacity:1"
         id="path5136" />
      <path
         d="m 276.82359,83.442727 -20.73847,0 q 0.7891,1.972743 2.7865,3.181048 2.02206,1.208306 5.4497,1.208306 2.81116,0 7.47177,-1.208306 1.92342,-0.493185 2.6632,-0.493185 1.01103,0 1.70149,0.715119 0.69046,0.715119 0.69046,1.800128 0,0.986372 -0.73977,1.676832 -0.98638,0.912394 -4.80857,1.75081 -3.82219,0.813756 -7.34846,0.813756 -6.06619,0 -9.71577,-3.427641 -3.62491,-3.427642 -3.62491,-8.433478 0,-5.326406 3.92083,-8.655411 3.94548,-3.353663 9.07462,-3.353663 3.08241,0 5.64697,1.085008 2.58923,1.085009 3.84685,2.342633 1.77547,1.824788 2.93446,4.51265 0.7891,1.874106 0.7891,4.340036 l 0,2.145358 z m -5.59766,-5.055155 q -1.15899,-2.170017 -3.0331,-3.230367 -1.8741,-1.085009 -4.46333,-1.085009 -2.56456,0 -4.43867,1.085009 -1.87411,1.06035 -3.05775,3.230367 l 14.99285,0 z"
         style="letter-spacing:-9.81999969px;fill:url(#linearGradient4612)"
         id="path5138" />
      <path
         d="m 277.21253,90.791196 q -0.6658,0.789097 -1.08501,1.01103 -0.39455,0.221934 -0.98637,0.221934 -1.15899,0 -1.87411,-0.764438 -0.69046,-0.789097 -0.69046,-2.589225 l 0,-3.402983 q 0,-1.824787 0.69046,-2.589225 0.71512,-0.789097 1.87411,-0.789097 0.88774,0 1.47956,0.468526 0.61648,0.468527 0.93705,1.578195 0.32057,1.085008 0.6658,1.479557 0.71512,0.764438 2.53991,1.553535 1.82479,0.789098 3.9948,0.789098 3.37833,0 5.54834,-1.578195 1.38093,-0.961712 1.38093,-2.367292 0,-0.937053 -0.66581,-1.750809 -0.6658,-0.838416 -2.17001,-1.380921 -0.98637,-0.369889 -4.41402,-1.011031 -4.14276,-0.764438 -6.26346,-1.849446 -2.1207,-1.085009 -3.35366,-3.057753 -1.23296,-1.972743 -1.23296,-4.266057 0,-3.624916 3.03309,-6.337438 3.03309,-2.737181 7.89097,-2.737181 1.94809,0 3.60026,0.443867 1.67683,0.419208 3.03309,1.306943 0.98637,-0.961713 1.97274,-0.961713 1.10967,0 1.80013,0.789098 0.71512,0.764438 0.71512,2.564566 l 0,3.797531 q 0,1.824787 -0.71512,2.613885 -0.69046,0.764438 -1.80013,0.764438 -0.93705,0 -1.62751,-0.567164 -0.5425,-0.419208 -0.81376,-1.676832 -0.27125,-1.257624 -0.69046,-1.800128 -0.71512,-0.937053 -2.14535,-1.578195 -1.43024,-0.641141 -3.30435,-0.641141 -2.73718,0 -4.34003,1.282283 -1.5782,1.257624 -1.5782,2.638544 0,0.937053 0.64114,1.824788 0.6658,0.863075 1.92343,1.356261 0.83841,0.34523 4.70992,1.109668 3.89617,0.764438 5.96755,1.676831 2.09604,0.912394 3.47696,2.860478 1.38092,1.948084 1.38092,4.635947 0,3.748212 -2.63854,5.992208 -3.50162,2.959114 -8.92667,2.959114 -2.09604,0 -4.09344,-0.517845 -1.97274,-0.493186 -3.84685,-1.504216 z"
         style="letter-spacing:-11.14000034px;fill:url(#linearGradient4612)"
         id="path5140" />
      <path
         d="m 302.4943,74.737997 0,10.134969 q 0,1.627513 0.6658,2.145358 1.03569,0.813757 3.69889,0.813757 3.87151,0 7.1512,-1.652173 1.25762,-0.641141 1.97274,-0.641141 0.98637,0 1.70149,0.739778 0.73978,0.739779 0.73978,1.800129 0,0.986371 -0.7891,1.701491 -1.2083,1.158986 -4.7839,2.145358 -3.55094,0.961712 -5.99221,0.961712 -4.70992,0 -7.07722,-2.022062 -2.34263,-2.046721 -2.34263,-5.005836 l 0,-11.12134 -1.82479,0 q -1.82478,0 -2.61388,-0.69046 -0.76444,-0.715119 -0.76444,-1.849447 0,-1.109668 0.76444,-1.800128 0.7891,-0.715119 2.61388,-0.715119 l 1.82479,0 0,-4.561969 q 0,-1.824788 0.69046,-2.589226 0.71512,-0.789097 1.84945,-0.789097 1.10967,0 1.80013,0.789097 0.71512,0.764438 0.71512,2.589226 l 0,4.561969 9.34587,0 q 1.82479,0 2.58922,0.715119 0.7891,0.69046 0.7891,1.824788 0,1.109668 -0.7891,1.824787 -0.76443,0.69046 -2.58922,0.69046 l -9.34587,0 z"
         style="letter-spacing:-12.57999992px;fill:url(#linearGradient4612)"
         id="path5142" />
      <path
         d="m 320.39319,69.682843 0,3.156389 q 3.18104,-2.293314 5.00583,-3.057752 1.84945,-0.764438 3.4523,-0.764438 2.46593,0 4.7839,1.824787 1.5782,1.232965 1.5782,2.515248 0,1.085009 -0.76444,1.849447 -0.73978,0.739778 -1.80013,0.739778 -0.93705,0 -1.97274,-0.937053 -1.03569,-0.937053 -1.84945,-0.937053 -1.06035,0 -3.18105,1.331602 -2.09604,1.331602 -5.25242,3.994805 l 0,7.619721 7.20051,0 q 1.82479,0 2.58922,0.715119 0.7891,0.690461 0.7891,1.824788 0,1.109668 -0.7891,1.824788 -0.76443,0.69046 -2.58922,0.69046 l -15.2641,0 q -1.82479,0 -2.61389,-0.69046 -0.76444,-0.71512 -0.76444,-1.849447 0,-1.109668 0.76444,-1.800129 0.7891,-0.715119 2.61389,-0.715119 l 3.00843,0 0,-12.280327 -1.82479,0 q -1.82478,0 -2.61388,-0.69046 -0.76444,-0.715119 -0.76444,-1.849447 0,-1.109668 0.76444,-1.800128 0.7891,-0.715119 2.61388,-0.715119 l 6.87995,0 z"
         style="letter-spacing:-8.94000053px;fill:url(#linearGradient4612)"
         id="path5144" />
      <path
         d="m 347.33246,92.073479 0,-1.183646 q -1.89877,1.011031 -4.19208,1.504216 -2.29332,0.517846 -4.16742,0.517846 -4.06878,0 -6.60869,-2.145359 -2.53991,-2.170017 -2.53991,-4.783902 0,-3.181049 3.23037,-5.893571 3.25502,-2.737181 8.97598,-2.737181 2.29331,0 5.30175,0.493186 l 0,-1.208305 q 0,-1.134328 -0.98637,-1.849447 -0.96172,-0.71512 -3.6989,-0.71512 -2.24399,0 -5.81959,0.887735 -1.3316,0.320571 -2.07138,0.320571 -1.01103,0 -1.72615,-0.71512 -0.69046,-0.739779 -0.69046,-1.874106 0,-0.641142 0.24659,-1.109668 0.24659,-0.468527 0.69046,-0.739779 0.44387,-0.295911 1.84945,-0.69046 1.8741,-0.517845 3.82219,-0.813757 1.94808,-0.32057 3.52628,-0.32057 4.70992,0 7.29915,2.046721 2.61388,2.022062 2.61388,5.54834 l 0,10.406221 0.86308,0 q 1.82479,0 2.58922,0.715119 0.7891,0.690461 0.7891,1.824788 0,1.109668 -0.7891,1.824788 -0.76443,0.69046 -2.58922,0.69046 l -5.91823,0 z m 0,-9.04996 q -3.03309,-0.591823 -5.59766,-0.591823 -3.08241,0 -5.30175,1.504217 -1.38092,0.961712 -1.38092,1.948084 0,0.715119 0.6658,1.158986 1.23297,0.813757 3.37832,0.813757 1.82479,0 4.11811,-0.715119 2.31797,-0.71512 4.1181,-1.948084 l 0,-2.170018 z"
         style="letter-spacing:-11.27999973px;fill:url(#linearGradient4612)"
         id="path5146" />
      <path
         d="m 361.82141,82.752267 -3.50162,9.321212 -4.75924,0 -4.2414,-17.335482 q -1.38092,-0.07398 -2.09604,-0.764438 -0.69046,-0.715119 -0.69046,-1.775469 0,-1.109668 0.76444,-1.800128 0.78909,-0.715119 2.61388,-0.715119 l 4.70993,0 q 1.82478,0 2.58922,0.715119 0.7891,0.69046 0.7891,1.824788 0,1.134327 -0.88773,1.923424 -0.66581,0.591823 -2.61389,0.591823 l 1.92343,8.01427 3.13173,-8.211544 4.48799,0 3.15639,8.211544 1.97274,-8.01427 q -1.87411,0 -2.46593,-0.369889 -1.18365,-0.764438 -1.18365,-2.170018 0,-1.109668 0.76444,-1.800128 0.7891,-0.715119 2.61389,-0.715119 l 4.75924,0 q 1.82479,0 2.58923,0.715119 0.78909,0.69046 0.78909,1.824788 0,1.01103 -0.69046,1.72615 -0.6658,0.69046 -1.9974,0.789097 l -4.14276,17.335482 -4.68527,0 -3.69889,-9.321212 z"
         style="font-style:normal;font-variant:normal;font-weight:bold;font-stretch:normal;font-family:'Courier New';-inkscape-font-specification:'Courier New Bold';letter-spacing:-7.46000004px;fill:url(#linearGradient4612);fill-opacity:1;stroke:none;stroke-width:1.26255572px;stroke-opacity:1"
         id="path5148" />
    </g>
  </g>
</svg>
